<svg width="83" height="28" viewBox="0 0 83 28" fill="none" xmlns="http://www.w3.org/2000/svg">
<path d="M27.7412 12.8643C27.7412 14.5023 27.5254 15.9577 27.0938 17.2305C26.6732 18.4922 26.0921 19.5934 25.3506 20.5342C24.609 21.4749 23.7292 22.2663 22.7109 22.9082C21.7038 23.5501 20.6081 24.0703 19.4238 24.4688C18.2507 24.8672 17.0166 25.1494 15.7217 25.3154C14.4378 25.4925 13.1429 25.5811 11.8369 25.5811C10.4977 25.5811 8.90397 25.5368 7.05566 25.4482C5.21842 25.3708 3.15983 25.2214 0.879883 25L2.1416 18.9072C2.93848 19.1175 3.77409 19.3001 4.64844 19.4551C5.52279 19.599 6.38607 19.7152 7.23828 19.8037L6.19238 6.9541C5.50618 7.08691 4.80892 7.23079 4.10059 7.38574C3.39225 7.54069 2.66178 7.71224 1.90918 7.90039L0.879883 2.58789C2.13053 2.21159 3.36458 1.90723 4.58203 1.6748C5.79948 1.44238 6.95052 1.27083 8.03516 1.16016C9.11979 1.03841 10.1104 0.960938 11.0068 0.927734C11.9144 0.883464 12.6781 0.861328 13.2979 0.861328C15.3896 0.861328 17.3154 1.08268 19.0752 1.52539C20.846 1.95703 22.3734 2.6543 23.6572 3.61719C24.9411 4.56901 25.9427 5.80859 26.6621 7.33594C27.3815 8.85221 27.7412 10.695 27.7412 12.8643ZM14.3105 20.2021C16.0924 20.2021 17.653 19.9863 18.9922 19.5547C20.3424 19.123 21.4658 18.5697 22.3623 17.8945C23.2699 17.2083 23.9505 16.4502 24.4043 15.6201C24.8581 14.779 25.085 13.9489 25.085 13.1299C25.085 12.3219 24.9466 11.5085 24.6699 10.6895C24.4043 9.85938 23.9505 9.10677 23.3086 8.43164C22.6667 7.75651 21.8145 7.19206 20.752 6.73828C19.7005 6.28451 18.3945 6.02441 16.834 5.95801C16.3802 5.93587 15.8545 5.93587 15.2568 5.95801C14.7477 5.98014 14.1335 6.01335 13.4141 6.05762C12.6947 6.10189 11.8867 6.17383 10.9902 6.27344L10.376 20.0693C10.9404 20.1136 11.4606 20.1468 11.9365 20.1689C12.4235 20.18 12.8441 20.1911 13.1982 20.2021C13.6077 20.2132 13.9785 20.2132 14.3105 20.2021ZM38.2334 0.695312C39.0524 0.695312 39.8936 0.789388 40.7568 0.977539C41.6201 1.15462 42.4059 1.47005 43.1143 1.92383C43.8337 2.3776 44.4202 2.9974 44.874 3.7832C45.3278 4.56901 45.5547 5.5651 45.5547 6.77148C45.5547 7.72331 45.361 8.55892 44.9736 9.27832C44.5973 9.99772 44.1214 10.6341 43.5459 11.1875C42.9814 11.7298 42.3617 12.2002 41.6865 12.5986C41.0225 12.986 40.4082 13.3236 39.8438 13.6113C40.7402 14.2422 41.6921 14.873 42.6992 15.5039C43.7064 16.1348 44.7246 16.749 45.7539 17.3467C46.3184 16.6715 46.833 15.9798 47.2979 15.2715C47.7627 14.5521 48.1667 13.8493 48.5098 13.1631C48.8529 12.4769 49.1296 11.8294 49.3398 11.2207C49.5612 10.6009 49.7051 10.0586 49.7715 9.59375C49.7826 9.59375 49.8822 9.59928 50.0703 9.61035C50.2585 9.62142 50.502 9.63802 50.8008 9.66016C51.1107 9.67122 51.4593 9.68783 51.8467 9.70996C52.234 9.7321 52.627 9.75423 53.0254 9.77637C53.9661 9.82064 55.0342 9.87598 56.2295 9.94238C55.8311 11.0049 55.3496 12.1006 54.7852 13.2295C54.5417 13.7165 54.2705 14.2311 53.9717 14.7734C53.6729 15.3158 53.3408 15.8747 52.9756 16.4502C52.6104 17.0257 52.2174 17.6123 51.7969 18.21C51.3763 18.7965 50.9281 19.3721 50.4521 19.9365C51.1826 20.3239 51.8522 20.6725 52.4609 20.9824C53.0807 21.2923 53.623 21.5579 54.0879 21.7793C54.6191 22.0449 55.1061 22.2773 55.5488 22.4766L51.8467 27.0088C51.3818 26.7321 50.8783 26.4111 50.3359 26.0459C49.86 25.736 49.3066 25.3708 48.6758 24.9502C48.0449 24.5186 47.3532 24.0371 46.6006 23.5059C45.5381 24.2585 44.387 24.8617 43.1475 25.3154C41.9079 25.7803 40.5798 26.0127 39.1631 26.0127C37.8571 26.0127 36.6286 25.902 35.4775 25.6807C34.3376 25.4704 33.3415 25.1107 32.4893 24.6016C31.637 24.0924 30.9619 23.4173 30.4639 22.5762C29.9769 21.735 29.7334 20.6947 29.7334 19.4551C29.7334 18.6803 29.8883 18.0107 30.1982 17.4463C30.5192 16.8708 30.9398 16.3617 31.46 15.9189C31.9912 15.4762 32.5889 15.0778 33.2529 14.7236C33.9281 14.3584 34.6253 13.9987 35.3447 13.6445C34.3486 12.4714 33.5462 11.3092 32.9375 10.1582C32.3288 9.00716 32.0244 7.91146 32.0244 6.87109C32.0244 6.04102 32.1296 5.31608 32.3398 4.69629C32.5612 4.06543 32.849 3.52311 33.2031 3.06934C33.5573 2.60449 33.9557 2.22266 34.3984 1.92383C34.8522 1.61393 35.306 1.37044 35.7598 1.19336C36.2246 1.01628 36.6729 0.888997 37.1045 0.811523C37.5361 0.734049 37.9124 0.695312 38.2334 0.695312ZM42.7656 8.06641C42.7656 7.53516 42.6107 7.09245 42.3008 6.73828C42.002 6.38411 41.6201 6.10742 41.1553 5.9082C40.6904 5.69792 40.1868 5.55404 39.6445 5.47656C39.1022 5.38802 38.5986 5.34375 38.1338 5.34375C37.7907 5.34375 37.4089 5.38802 36.9883 5.47656C36.5788 5.55404 36.1914 5.68685 35.8262 5.875C35.4609 6.06315 35.151 6.31217 34.8965 6.62207C34.653 6.9209 34.5312 7.29167 34.5312 7.73438C34.5312 8.04427 34.6143 8.3763 34.7803 8.73047C34.9463 9.07357 35.1787 9.4388 35.4775 9.82617C35.7874 10.2025 36.1527 10.5954 36.5732 11.0049C36.9938 11.4033 37.4587 11.8073 37.9678 12.2168C38.5986 11.8405 39.2018 11.4753 39.7773 11.1211C40.3639 10.7559 40.873 10.4017 41.3047 10.0586C41.7474 9.70443 42.1016 9.36686 42.3672 9.0459C42.6328 8.71387 42.7656 8.38737 42.7656 8.06641ZM33.5186 19.0234C33.5186 19.5547 33.6458 20.0029 33.9004 20.3682C34.1549 20.7223 34.487 21.0156 34.8965 21.248C35.3171 21.4694 35.793 21.6299 36.3242 21.7295C36.8555 21.8291 37.4033 21.8789 37.9678 21.8789C38.7646 21.8789 39.5339 21.7461 40.2754 21.4805C41.028 21.2038 41.7529 20.833 42.4502 20.3682C41.4652 19.5713 40.4857 18.7467 39.5117 17.8945C38.5488 17.0312 37.6357 16.1458 36.7725 15.2383C36.3851 15.4596 35.9977 15.7031 35.6104 15.9688C35.234 16.2233 34.8854 16.5055 34.5645 16.8154C34.2546 17.1143 34 17.4518 33.8008 17.8281C33.6126 18.1934 33.5186 18.5918 33.5186 19.0234ZM74.3584 15.2383L66.6719 14.624L66.373 18.6416H79.4883L80.1357 15.4043H82.7256L82.1445 24.0537L58.0391 24.9668V18.6416H62.9697L62.2559 7.45215L58.0391 7.73438V1.47559L82.7256 1.99023V11.5693L80.1357 12.084L79.6211 6.33984L67.2529 7.15332L66.8711 11.9844L74.3584 11.5361V15.2383Z" fill="#F9BF13"/>
</svg>
